<svg width="128" height="52" viewBox="0 0 128 52" fill="none" xmlns="http://www.w3.org/2000/svg">
<path d="M23.0728 26.4012L24.6953 18.2886H29.6377L29.3132 19.961H26.3428L26.0183 21.6335H28.5394L28.2149 23.3059H25.6938L25.0697 26.4012H23.0728Z" fill="white"/> 
<path d="M19.4056 18.2886C20.121 18.2886 20.7531 18.4053 21.3021 18.6382C21.8513 18.8628 22.2804 19.2205 22.5882 19.7114C22.896 20.194 23.0501 20.8181 23.0501 21.5835C23.0501 22.3655 22.9291 23.0601 22.6878 23.6675C22.4549 24.2666 22.1302 24.7705 21.7142 25.1782C21.2982 25.5775 20.8194 25.8814 20.2787 26.0894C19.738 26.2972 19.1641 26.4008 18.557 26.4009H15.8109L17.433 18.2886H19.4056ZM19.7738 19.5933C19.7736 19.5238 19.6743 19.5121 19.6576 19.5796L19.5042 20.1987C19.3005 21.0213 18.6789 21.6766 17.8685 21.9243C17.8189 21.9398 17.811 22.007 17.8558 22.0337C18.5836 22.4676 19.03 23.2518 19.0316 24.0991L19.0326 24.7368C19.0327 24.8062 19.1318 24.8185 19.1488 24.7515L19.3021 24.1313C19.5059 23.3091 20.1268 22.6545 20.9369 22.4067C20.9868 22.3915 20.9953 22.3242 20.9505 22.2974C20.2226 21.8635 19.7763 21.0784 19.7747 20.231L19.7738 19.5933Z" fill="white"/>
<path d="M9 26.4012L10.6225 18.2886H13.2934C13.8343 18.2886 14.321 18.3635 14.7537 18.5132C15.1864 18.6547 15.5275 18.8877 15.7772 19.2122C16.0351 19.5367 16.1641 19.9693 16.1641 20.5102C16.1641 21.1009 16.0601 21.6043 15.852 22.0204C15.6523 22.4364 15.3736 22.7734 15.0158 23.0313C14.658 23.281 14.2503 23.464 13.7927 23.5805C13.335 23.697 12.8525 23.7552 12.3449 23.7552H11.5212L10.997 26.4012H9ZM11.8457 22.1826H12.582C13.0979 22.1826 13.4931 22.0661 13.7677 21.8332C14.0506 21.6002 14.1921 21.259 14.1921 20.8097C14.1921 20.4852 14.0881 20.2481 13.8801 20.0983C13.672 19.9402 13.385 19.8612 13.0189 19.8612H12.295L11.8457 22.1826Z" fill="white"/>
<path d="M64.8983 18.1328H70.7046L70.5067 19.2092H64.7004L64.8983 18.1328ZM67.0968 18.6311H68.2418L66.7023 27.0026H65.5573L67.0968 18.6311ZM64.809 20.1061H69.4399L69.2438 21.1725H65.7175L64.9074 25.5774H63.8029L64.809 20.1061ZM68.9737 20.1061H70.0985L69.305 24.4214C69.261 24.6606 69.1979 24.8566 69.1158 25.0094C69.0416 25.1555 68.9223 25.2718 68.7578 25.3582C68.592 25.4512 68.4094 25.5077 68.2098 25.5276C68.0102 25.5475 67.7787 25.5575 67.5153 25.5575C67.5231 25.4047 67.511 25.2319 67.4788 25.0393C67.4547 24.8399 67.4217 24.6705 67.3798 24.531C67.5204 24.5376 67.6515 24.541 67.7731 24.541C67.8947 24.541 67.9798 24.5376 68.0283 24.531C68.0823 24.531 68.118 24.521 68.1351 24.5011C68.1591 24.4812 68.1753 24.4479 68.1839 24.4014L68.9737 20.1061ZM63.5198 17.6943H64.6344L63.905 21.6608C63.8134 22.1591 63.7021 22.6541 63.5712 23.1457C63.4482 23.6307 63.2831 24.1058 63.076 24.5709C62.8769 25.0293 62.6212 25.4645 62.309 25.8764C61.998 26.2817 61.6115 26.6571 61.1494 27.0026C61.0965 26.9228 61.0258 26.8298 60.9373 26.7235C60.8475 26.6239 60.7538 26.5275 60.656 26.4345C60.5583 26.3415 60.467 26.2684 60.3822 26.2152C60.9284 25.8166 61.3542 25.3748 61.6595 24.8898C61.9729 24.3981 62.2134 23.8799 62.3812 23.3351C62.5489 22.7903 62.6859 22.2289 62.7922 21.6508L63.5198 17.6943ZM61.6389 18.8305H62.713L61.8168 23.7038H60.7427L61.6389 18.8305Z" fill="white"/>
<path d="M51.0531 20.3554H60.0716L59.8443 21.5912H50.8259L51.0531 20.3554ZM56.1699 20.8537C56.2333 21.6111 56.3835 22.3187 56.6206 22.9765C56.8577 23.6342 57.1945 24.2089 57.631 24.7006C58.0742 25.1922 58.6243 25.5809 59.281 25.8666C59.1638 25.953 59.0356 26.0626 58.8963 26.1955C58.7638 26.3284 58.6306 26.4646 58.4969 26.6041C58.3687 26.7502 58.2604 26.8798 58.1721 26.9928C57.4612 26.634 56.8773 26.1722 56.4205 25.6075C55.9704 25.0427 55.6252 24.385 55.385 23.6342C55.146 22.8768 54.9818 22.043 54.8925 21.1328L56.1699 20.8537ZM55.3562 17.6746H56.6836C56.584 18.1795 56.4688 18.7143 56.3379 19.2791C56.215 19.8372 56.0599 20.4052 55.8725 20.9833C55.6851 21.5613 55.4477 22.136 55.1602 22.7074C54.8808 23.2721 54.5306 23.8169 54.1098 24.3418C53.697 24.86 53.1958 25.345 52.606 25.7968C52.023 26.2486 51.3384 26.6473 50.552 26.9928C50.4868 26.8333 50.3874 26.6572 50.254 26.4646C50.1205 26.2719 49.9776 26.1124 49.8251 25.9862C50.5704 25.6806 51.2127 25.3284 51.7522 24.9298C52.2928 24.5245 52.7511 24.0893 53.1272 23.6243C53.5111 23.1525 53.8272 22.6642 54.0755 22.1593C54.3249 21.6477 54.5243 21.1328 54.6737 20.6145C54.8298 20.0963 54.9604 19.588 55.0655 19.0897C55.1707 18.5914 55.2676 18.1197 55.3562 17.6746Z" fill="white"/>
<path d="M40.1596 22.7273C40.5876 22.6409 41.0987 22.5247 41.693 22.3785C42.2886 22.2257 42.8909 22.0729 43.5 21.9201L43.4642 22.9964C42.9091 23.1492 42.3468 23.3053 41.777 23.4648C41.2085 23.6176 40.6869 23.7538 40.2123 23.8734L40.1596 22.7273ZM40.8843 19.5581H43.9343L43.7327 20.6544H40.6827L40.8843 19.5581ZM42.2642 17.6746H43.4397L41.9753 25.6374C41.9228 25.9231 41.8509 26.149 41.7595 26.3151C41.6682 26.4812 41.5356 26.614 41.3619 26.7137C41.1882 26.8134 40.9841 26.8765 40.7495 26.9031C40.5205 26.9363 40.2438 26.9529 39.9196 26.9529C39.9354 26.7934 39.9303 26.6008 39.9043 26.3749C39.885 26.149 39.8529 25.9563 39.8079 25.7968C39.9756 25.8035 40.1371 25.8068 40.2925 25.8068C40.4479 25.8068 40.5532 25.8035 40.6084 25.7968C40.7165 25.7968 40.7803 25.7437 40.7999 25.6374L42.2642 17.6746ZM45.8881 18.5217H48.8267L48.6434 19.5183H45.7048L45.8881 18.5217ZM46.1738 17.6845L47.3291 17.9038C46.9698 18.4619 46.5447 19.01 46.054 19.5482C45.5632 20.0863 44.9981 20.5879 44.3586 21.053C44.3204 20.9667 44.2645 20.867 44.1907 20.754C44.1236 20.6411 44.0486 20.5348 43.9656 20.4351C43.8905 20.3288 43.8146 20.2458 43.7378 20.186C44.1073 19.9402 44.4426 19.6777 44.7439 19.3987C45.0531 19.113 45.3258 18.824 45.562 18.5316C45.8061 18.2327 46.01 17.9503 46.1738 17.6845ZM48.472 18.5217H48.7355L48.9372 18.4718L49.6424 18.9901C49.4645 19.2226 49.2572 19.4684 49.0204 19.7276C48.7836 19.9867 48.5379 20.2391 48.2832 20.485C48.0298 20.7242 47.7915 20.9368 47.5681 21.1228C47.4759 21.0364 47.3551 20.9401 47.2058 20.8338C47.0632 20.7275 46.9338 20.6411 46.8177 20.5747C47.0116 20.4019 47.2098 20.2059 47.4122 19.9867C47.6227 19.7608 47.8156 19.5382 47.991 19.3189C48.1732 19.0997 48.3201 18.907 48.4317 18.7409L48.472 18.5217ZM43.2626 23.1558H49.616L49.4309 24.1624H43.0775L43.2626 23.1558ZM44.4296 20.2259H49.5671L48.9788 23.4249H47.7527L48.1761 21.1228H45.4199L44.9965 23.4249H43.8414L44.4296 20.2259ZM46.7942 23.8435C46.9155 24.1757 47.0917 24.4846 47.3229 24.7703C47.5541 25.056 47.8353 25.3085 48.1665 25.5278C48.5057 25.7404 48.8799 25.9098 49.289 26.036C49.1467 26.149 48.9847 26.2951 48.8031 26.4745C48.6203 26.6606 48.4749 26.8267 48.3669 26.9728C47.9381 26.8067 47.5534 26.5841 47.2129 26.3051C46.8724 26.0261 46.5838 25.7038 46.347 25.3384C46.1114 24.9663 45.9253 24.5644 45.7885 24.1325L46.7942 23.8435ZM46.2929 20.8936H47.4886L47.2394 22.2489C47.1869 22.5346 47.1036 22.8403 46.9897 23.1658C46.8838 23.4847 46.7287 23.8136 46.5246 24.1524C46.3284 24.4846 46.0674 24.8202 45.7416 25.159C45.4171 25.4912 45.016 25.8168 44.5386 26.1357C44.0599 26.4612 43.4841 26.7635 42.8113 27.0426C42.7455 26.923 42.6468 26.7801 42.5152 26.614C42.3836 26.4479 42.256 26.3151 42.1325 26.2154C42.7777 25.9762 43.3213 25.7204 43.7632 25.448C44.2051 25.1756 44.5665 24.8999 44.8475 24.6208C45.1298 24.3352 45.3506 24.0528 45.51 23.7737C45.6694 23.4947 45.7864 23.2256 45.8611 22.9665C45.9437 22.7007 46.0052 22.4582 46.0455 22.239L46.2929 20.8936Z" fill="white"/>
<path d="M30.8848 18.7209H34.8064L34.6066 19.8072H30.6851L30.8848 18.7209ZM32.4866 20.4251H33.6418L32.4304 27.0126H31.2752L32.4866 20.4251ZM29.7793 24.2919C30.1459 24.2454 30.5644 24.1923 31.0347 24.1325C31.5118 24.0727 32.0138 24.0062 32.5407 23.9332C33.0743 23.8601 33.6079 23.787 34.1415 23.7139L34.0034 24.7404C33.2709 24.8666 32.5316 24.9929 31.7855 25.1191C31.0475 25.2387 30.3862 25.345 29.8016 25.438L29.7793 24.2919ZM30.4644 23.0462C30.4576 22.9731 30.4449 22.8768 30.4263 22.7572C30.409 22.6309 30.3883 22.5047 30.3642 22.3785C30.3414 22.2456 30.3149 22.1326 30.2847 22.0396C30.3921 22.0064 30.4986 21.9233 30.6041 21.7905C30.7176 21.6509 30.8384 21.4716 30.9665 21.2523C31.0254 21.1526 31.1173 20.9832 31.2424 20.744C31.3754 20.4982 31.5164 20.2092 31.6653 19.877C31.821 19.5448 31.9775 19.1893 32.135 18.8106C32.2937 18.4253 32.4315 18.0433 32.5484 17.6646L33.6854 17.8738C33.4636 18.4186 33.2102 18.9701 32.9251 19.5282C32.6481 20.0796 32.359 20.6045 32.058 21.1028C31.7637 21.6011 31.4786 22.0496 31.2026 22.4482L31.1989 22.4682C31.1989 22.4682 31.1609 22.4914 31.0848 22.5379C31.0166 22.5778 30.9365 22.6276 30.8445 22.6874C30.7524 22.7472 30.6665 22.8103 30.5867 22.8768C30.5137 22.9432 30.4729 22.9997 30.4644 23.0462ZM30.4644 23.0462L30.6403 22.0894L31.2066 21.8204H34.1452L33.9473 22.8967H31.2721C31.1167 22.8967 30.9555 22.91 30.7885 22.9366C30.6215 22.9631 30.5135 22.9997 30.4644 23.0462ZM35.5239 22.4781H38.5031L38.2996 23.5843H35.3205L35.5239 22.4781ZM38.2092 22.4781H38.3916L38.585 22.4183L39.3693 22.8369C39.0969 23.1425 38.8006 23.4681 38.4804 23.8136C38.1681 24.1524 37.8418 24.4946 37.5013 24.8401C37.1687 25.1789 36.8448 25.5078 36.5294 25.8267L35.5755 25.3384C35.8872 25.0394 36.2059 24.7205 36.5317 24.3816C36.8575 24.0428 37.1639 23.7172 37.451 23.405C37.7461 23.086 37.9915 22.817 38.1872 22.5977L38.2092 22.4781ZM34.4393 24.9596L35.3607 24.1923C35.7036 24.3849 36.0461 24.5976 36.3884 24.8301C36.732 25.056 37.0512 25.2852 37.3462 25.5177C37.6425 25.7436 37.8843 25.9529 38.0718 26.1456L37.1092 27.0824C36.9296 26.8831 36.6942 26.6572 36.4029 26.4047C36.1115 26.1522 35.7932 25.8998 35.4478 25.6473C35.1104 25.3882 34.7742 25.159 34.4393 24.9596ZM37.3073 17.6845L38.4875 17.824C38.2914 18.3024 38.0742 18.804 37.8358 19.3289C37.6042 19.8537 37.3698 20.3753 37.1326 20.8935C36.9022 21.4118 36.6767 21.9034 36.4561 22.3685C36.2434 22.8269 36.0473 23.2322 35.8677 23.5843H34.5808C34.7788 23.2056 34.9961 22.7771 35.2327 22.2987C35.4705 21.8137 35.7126 21.3055 35.9589 20.7739C36.2053 20.2424 36.4443 19.7142 36.6759 19.1893C36.9088 18.6578 37.1192 18.1562 37.3073 17.6845ZM35.1997 18.7309H39.9623L39.7625 19.8172H34.9999L35.1997 18.7309ZM34.5042 20.5846H39.976L39.7726 21.6908H34.3007L34.5042 20.5846Z" fill="white"/>
<path fill-rule="evenodd" clip-rule="evenodd" d="M113.917 27.4973L117.77 30.1872C118.834 30.93 119.095 32.3948 118.352 33.459L115.662 37.3127C114.919 38.3769 113.455 38.6374 112.39 37.8946L108.537 35.2047C107.473 34.4619 107.212 32.9971 107.955 31.9329L110.645 28.0792C111.361 27.053 112.749 26.7741 113.801 27.4215L113.917 27.4973Z" fill="#6865EA"/>
<path d="M113.167 30.7384C113.319 30.6323 113.521 30.7712 113.477 30.9506L112.829 33.5522L114.124 33.0391C114.268 32.9827 114.418 33.1029 114.395 33.2554L114.098 35.1991C114.076 35.3453 113.908 35.4174 113.787 35.333L110.431 32.9905C110.317 32.911 110.316 32.7422 110.43 32.6624L113.167 30.7384ZM115.104 31.9545C115.281 32.0783 115.325 32.3225 115.201 32.4997C115.077 32.6768 114.833 32.7203 114.656 32.5967C114.479 32.473 114.435 32.2288 114.559 32.0515C114.683 31.8741 114.927 31.8307 115.104 31.9545Z" fill="white"/>
<path fill-rule="evenodd" clip-rule="evenodd" d="M111.708 14.9983L116.226 16.2937C117.473 16.6514 118.195 17.9527 117.837 19.2002L116.541 23.7178C116.184 24.9653 114.882 25.6866 113.635 25.3288L109.117 24.0335C107.87 23.6757 107.149 22.3745 107.506 21.127L108.802 16.6094C109.147 15.4064 110.369 14.6928 111.574 14.9641L111.708 14.9983Z" fill="#FF7C53"/>
<path fill-rule="evenodd" clip-rule="evenodd" d="M112.149 18.3627C112.123 18.4048 112.1 18.4628 112.079 18.5366L111.189 21.6409C111.17 21.7042 111.179 21.7732 111.215 21.848C111.25 21.9229 111.33 21.9779 111.453 22.0132C111.576 22.0485 111.671 22.0456 111.74 22.0044C111.809 21.9633 111.854 21.9077 111.874 21.8374L112.179 20.7727L112.732 20.9314C112.957 20.9959 113.156 21.0282 113.329 21.0284C113.502 21.0286 113.654 20.9941 113.784 20.9249C113.914 20.8557 114.026 20.7509 114.119 20.6104C114.213 20.4699 114.291 20.2907 114.353 20.0729C114.416 19.855 114.446 19.6649 114.443 19.5025C114.44 19.34 114.401 19.1985 114.325 19.078C114.249 18.9574 114.137 18.8549 113.988 18.7704C113.839 18.6859 113.649 18.6104 113.417 18.5439L112.674 18.3308C112.569 18.3006 112.482 18.2805 112.415 18.2707C112.347 18.2608 112.292 18.2631 112.25 18.2777C112.208 18.2922 112.174 18.3205 112.149 18.3627ZM112.902 20.3411L112.348 20.1824L112.693 18.9808L113.246 19.1394C113.331 19.1636 113.406 19.1937 113.471 19.2297C113.537 19.2656 113.59 19.3131 113.63 19.3722C113.67 19.4312 113.695 19.5019 113.703 19.5842C113.712 19.6666 113.7 19.7657 113.667 19.8817C113.603 20.103 113.516 20.2511 113.405 20.3258C113.294 20.4005 113.127 20.4056 112.902 20.3411Z" fill="white"/>
<path fill-rule="evenodd" clip-rule="evenodd" d="M82.1245 31.2363L86.6421 29.9409C87.8896 29.5832 89.1909 30.3045 89.5486 31.552L90.844 36.0696C91.2017 37.3171 90.4804 38.6184 89.2329 38.9761L84.7153 40.2715C83.4678 40.6292 82.1666 39.9079 81.8088 38.6604L80.5135 34.1428C80.1685 32.9399 80.8269 31.6869 81.9929 31.2782L82.1245 31.2363Z" fill="#36B677"/>
<path d="M85.9993 33.1916C86.0444 33.076 86.105 32.993 86.1812 32.9427C86.2574 32.8923 86.353 32.881 86.4681 32.9089C86.5832 32.9367 86.6568 32.985 86.6888 33.0538C86.7209 33.1225 86.7204 33.1997 86.6872 33.2852L86.0473 34.889L87.7168 36.1215C87.7689 36.1597 87.7977 36.2133 87.803 36.2821C87.8083 36.3509 87.7701 36.4294 87.6882 36.5175C87.5998 36.6113 87.5173 36.6578 87.4409 36.6569C87.3644 36.656 87.2871 36.6268 87.2088 36.5694L85.7888 35.5392L85.1378 37.169C85.0651 37.3609 84.9194 37.4274 84.7007 37.3685C84.6115 37.3446 84.5456 37.2979 84.503 37.2284C84.4604 37.1588 84.4593 37.0726 84.4999 36.9697L85.2266 35.13L83.8428 34.118C83.7838 34.0703 83.7544 34.0036 83.7545 33.918C83.7547 33.8324 83.7825 33.7569 83.8379 33.6916C83.9187 33.6 83.9951 33.5467 84.067 33.5318C84.139 33.5169 84.2189 33.5405 84.3068 33.6028L85.4908 34.4782L85.9993 33.1916Z" fill="white"/>
<path fill-rule="evenodd" clip-rule="evenodd" d="M82.0105 14.7239L86.6171 15.6546C87.8891 15.9117 88.712 17.1512 88.455 18.4233L87.5243 23.0298C87.2672 24.3019 86.0277 25.1248 84.7556 24.8678L80.1491 23.937C78.877 23.68 78.0541 22.4404 78.3111 21.1684L79.2419 16.5618C79.4897 15.3352 80.6512 14.5262 81.8744 14.7005L82.0105 14.7239Z" fill="#2A7AFF"/>
<path d="M84.7869 21.7511C84.7222 21.9052 84.6381 22.0043 84.5347 22.0484C84.4313 22.0925 84.3129 22.1011 84.1798 22.0742C84.0869 22.0554 84.0035 22.0107 83.9296 21.9401C83.8557 21.8694 83.8098 21.7636 83.7921 21.6225L83.5163 19.1207L82.2678 21.3703C82.1567 21.567 81.9848 21.6381 81.7521 21.5837C81.6916 21.5715 81.6345 21.5525 81.5809 21.5268C81.5272 21.5011 81.4802 21.4637 81.4397 21.4147C81.3992 21.3657 81.3668 21.3025 81.3425 21.2251C81.3182 21.1478 81.3072 21.0517 81.3094 20.937L81.3851 17.8487C81.3856 17.7634 81.4187 17.693 81.4845 17.6376C81.5503 17.5821 81.6539 17.5687 81.7951 17.5972C81.8839 17.6152 81.9587 17.6452 82.0195 17.6872C82.0804 17.7292 82.1079 17.8165 82.1021 17.949L82.0268 20.2239C82.0225 20.3493 82.0328 20.4127 82.0577 20.414C82.0827 20.4154 82.1228 20.3622 82.1782 20.2545L83.2623 18.1946C83.3093 18.1075 83.3762 18.0467 83.463 18.0122C83.5498 17.9778 83.6396 17.9699 83.7324 17.9887C83.8373 18.0099 83.9189 18.0477 83.9772 18.1022C84.0355 18.1567 84.0723 18.2505 84.0874 18.3836C84.1302 18.7748 84.1734 19.1587 84.217 19.5353C84.2606 19.9119 84.3038 20.2958 84.3466 20.687C84.3606 20.805 84.3756 20.8712 84.3916 20.8856C84.4076 20.8999 84.439 20.8431 84.4859 20.7152L85.2811 18.6192C85.3258 18.5019 85.3816 18.4287 85.4484 18.3994C85.5152 18.3702 85.6031 18.3666 85.7121 18.3886C85.8493 18.4164 85.9372 18.4648 85.9757 18.5339C86.0143 18.6029 86.0175 18.6751 85.9855 18.7504L84.7869 21.7511Z" fill="white"/>
<g clip-path="url(#clip0_90_2199)">
<rect x="85.2272" y="16.0808" width="23.1367" height="23.1367" rx="4" transform="rotate(-10.1592 85.2272 16.0808)" fill="white" fill-opacity="0.01"/>
<foreignObject x="0" y="0" width="0" height="0"><div xmlns="http://www.w3.org/1999/xhtml" style="backdrop-filter:blur(5px);clip-path:url(#bgblur_1_90_2199_clip_path);height:100%;width:100%"></div></foreignObject><rect data-figma-bg-blur-radius="10" x="82.0888" y="14.0015" width="28.3558" height="28.3344" rx="7" transform="rotate(-10.1592 82.0888 14.0015)" fill="#286CDA" fill-opacity="0.5"/>
<path fill-rule="evenodd" clip-rule="evenodd" d="M105.799 26.6965C105.302 26.3228 104.422 26.2181 103.231 26.4317C102.59 26.5464 101.871 26.737 101.094 27.0306C100.566 26.6622 100.011 26.2218 99.4692 25.6864C99.0787 25.3089 98.7302 24.9085 98.4115 24.5028C98.623 22.9376 98.6321 21.7017 98.4768 20.8348C98.3027 19.8631 97.778 18.9081 96.7651 19.0896C96.4523 19.1456 96.1892 19.3933 96.0736 19.6918C95.7741 20.594 96.2891 22.353 97.3946 23.9754C97.2548 24.9107 97.1096 25.8161 96.891 26.8272C96.7053 27.6781 96.468 28.5846 96.1998 29.404C94.1018 30.7365 92.835 32.0743 92.8509 32.9354C92.8476 33.26 93.0055 33.5402 93.2691 33.7244L93.2781 33.7294C93.3765 33.7835 93.7135 33.9688 94.1892 33.8835C95.6936 33.6139 96.8278 30.8497 97.3616 29.1958C97.9348 28.8771 98.5256 28.5707 99.1041 28.2819C99.7396 27.9675 100.398 27.6952 100.99 27.4812C102.829 28.6482 104.272 28.6364 104.972 28.511C105.835 28.3562 106.084 27.9414 106.135 27.6238C106.232 27.2207 106.037 26.8235 105.804 26.634L105.799 26.6965ZM105.224 27.4974C105.223 27.8496 104.94 28.1351 104.492 28.2153C104.368 28.2375 104.257 28.2406 104.128 28.2303C103.271 28.1658 102.436 27.8629 101.542 27.3191C102.275 27.0536 102.903 26.9076 103.304 26.8357C103.752 26.7554 104.141 26.7025 104.403 26.7394C104.708 26.7518 105.209 26.8799 105.224 27.4974ZM99.0298 27.7805C99.612 27.5082 100.169 27.271 100.701 27.0688C100.229 26.7258 99.7467 26.3235 99.2771 25.9038C98.9922 25.6341 98.6993 25.3201 98.4217 25.0034C98.3878 25.1832 98.3558 25.3654 98.3234 25.5496L98.3233 25.5496L98.3233 25.5497L98.3233 25.5498C98.2475 25.9807 98.1698 26.4225 98.0621 26.8697C97.9329 27.3815 97.7938 27.9257 97.6115 28.4928C98.0436 28.2478 98.4824 28.0399 98.9101 27.8373L98.9101 27.8373L99.0298 27.7805ZM96.417 19.8963C96.477 19.7131 96.6255 19.5925 96.7604 19.5683C97.195 19.4904 97.3624 19.9933 97.4359 20.4034C97.5584 21.0867 97.5363 22.1722 97.4067 23.4337C96.5079 21.8706 96.2153 20.4967 96.417 19.8963ZM93.8825 33.4608C94.4835 33.3531 95.2885 32.1041 96.0088 30.2133C94.3457 31.3175 93.3406 32.3785 93.3322 33.007C93.334 33.1859 93.4185 33.32 93.5565 33.4147C93.6549 33.4568 93.7652 33.4818 93.8825 33.4608Z" fill="white"/>
</g>
<rect x="85.8076" y="16.4848" width="22.1367" height="22.1367" rx="3.5" transform="rotate(-10.1592 85.8076 16.4848)" stroke="url(#paint0_linear_90_2199)"/>
<rect x="85.8076" y="16.4848" width="22.1367" height="22.1367" rx="3.5" transform="rotate(-10.1592 85.8076 16.4848)" stroke="url(#paint1_linear_90_2199)"/>
<path d="M15.2172 37.612V39.496H19.6932V40.564H9.55319V39.496H14.0172V37.612H10.6092V36.544H14.0172V34.924H11.0532V34.036C10.5092 34.348 10.0132 34.62 9.56519 34.852L9.01319 33.796C10.3012 33.172 11.3452 32.564 12.1452 31.972C12.9452 31.372 13.6092 30.684 14.1372 29.908H15.1092C15.6292 30.692 16.3052 31.396 17.1372 32.02C17.9692 32.636 18.9932 33.232 20.2092 33.808L19.6332 34.84C19.1612 34.608 18.6892 34.356 18.2172 34.084V34.924H15.2172V36.544H18.6252V37.612H15.2172ZM14.6292 31.156C14.2372 31.644 13.7732 32.108 13.2372 32.548C12.7092 32.98 12.0732 33.42 11.3292 33.868H17.8572C16.4652 33.02 15.3892 32.116 14.6292 31.156ZM25.4172 30.82C25.6412 31.092 25.9252 31.476 26.2692 31.972C26.6212 32.468 26.9172 32.912 27.1572 33.304L26.2452 33.868L25.8252 33.148L24.7452 33.256L22.2612 33.52C22.1492 33.528 22.0092 33.548 21.8412 33.58L21.5772 33.616L21.3012 32.548C21.5172 32.5 21.6812 32.42 21.7932 32.308C22.0492 32.052 22.3532 31.672 22.7052 31.168C23.0572 30.664 23.3332 30.204 23.5332 29.788L24.6012 30.232C24.3692 30.616 24.0812 31.044 23.7372 31.516C23.4012 31.98 23.1212 32.336 22.8972 32.584C24.0252 32.464 24.8252 32.376 25.2972 32.32C25.0012 31.872 24.7732 31.54 24.6132 31.324L25.4172 30.82ZM28.4412 35.08C28.0572 35.064 27.7772 34.964 27.6012 34.78C27.4252 34.588 27.3372 34.28 27.3372 33.856V29.956H28.4172V31.792C28.9212 31.608 29.4212 31.4 29.9172 31.168C30.4212 30.928 30.8412 30.696 31.1772 30.472L31.6932 31.42C30.8692 31.868 29.7772 32.34 28.4172 32.836V33.508C28.4172 33.724 28.4532 33.872 28.5252 33.952C28.6052 34.024 28.7532 34.068 28.9692 34.084C29.2412 34.1 29.4372 34.108 29.5572 34.108C29.6852 34.108 29.8772 34.1 30.1332 34.084C30.3492 34.06 30.5012 34.036 30.5892 34.012C30.6852 33.98 30.7532 33.924 30.7932 33.844C30.8412 33.764 30.8772 33.632 30.9012 33.448C30.9332 33.008 30.9532 32.692 30.9612 32.5L31.9812 32.8C31.9652 33 31.9292 33.372 31.8732 33.916C31.8412 34.22 31.7772 34.452 31.6812 34.612C31.5852 34.772 31.4452 34.888 31.2612 34.96C31.0772 35.024 30.8252 35.064 30.5052 35.08C30.0412 35.096 29.6932 35.104 29.4612 35.104C29.2292 35.104 28.8892 35.096 28.4412 35.08ZM21.8532 40.828V34.144H26.4132V39.652C26.4132 39.972 26.3732 40.216 26.2932 40.384C26.2132 40.552 26.0812 40.668 25.8972 40.732C25.7212 40.796 25.4652 40.828 25.1292 40.828C24.9372 40.828 24.6292 40.808 24.2052 40.768L24.0492 39.772C24.4652 39.836 24.7732 39.868 24.9732 39.868C25.1332 39.868 25.2372 39.828 25.2852 39.748C25.3332 39.668 25.3572 39.5 25.3572 39.244V38.56H22.8852V40.828H21.8532ZM25.3572 35.932V35.08H22.8852V35.932H25.3572ZM32.0292 38.188C31.9812 38.86 31.9452 39.292 31.9212 39.484C31.8652 39.916 31.7292 40.216 31.5132 40.384C31.3052 40.552 30.9532 40.652 30.4572 40.684C30.2412 40.7 29.9132 40.708 29.4732 40.708C29.0412 40.708 28.7172 40.7 28.5012 40.684C28.1092 40.66 27.8172 40.548 27.6252 40.348C27.4412 40.156 27.3492 39.844 27.3492 39.412V35.584H28.4172V37.168C28.9612 36.952 29.4932 36.716 30.0132 36.46C30.5332 36.196 30.9452 35.952 31.2492 35.728L31.7772 36.64C31.4092 36.88 30.9012 37.152 30.2532 37.456C29.6052 37.752 28.9932 38 28.4172 38.2V39.052C28.4172 39.284 28.4652 39.44 28.5612 39.52C28.6572 39.6 28.8252 39.648 29.0652 39.664C29.1852 39.672 29.3612 39.676 29.5932 39.676C29.8332 39.676 30.0172 39.672 30.1452 39.664C30.4412 39.648 30.6372 39.596 30.7332 39.508C30.8372 39.42 30.9012 39.244 30.9252 38.98C30.9492 38.82 30.9692 38.64 30.9852 38.44C31.0012 38.232 31.0092 38.048 31.0092 37.888L32.0292 38.188ZM22.8852 36.82V37.672H25.3572V36.82H22.8852ZM37.8612 38.5L36.5172 38.704V40.948H35.4612V38.848L33.2052 39.16L33.0852 38.044C33.5652 37.996 34.3572 37.9 35.4612 37.756V36.124H33.4212V35.08C33.7412 34.2 34.0252 33.344 34.2732 32.512H33.2292V31.468H34.5732C34.7172 30.972 34.8612 30.424 35.0052 29.824L36.0732 29.992C36.0012 30.288 35.8692 30.78 35.6772 31.468H37.7412V32.512H35.3652C34.9892 33.736 34.7052 34.592 34.5132 35.08H35.4972V33.088H36.5172V35.08H37.7172V36.124H36.5172V37.612L37.8012 37.42L37.8612 38.5ZM44.0172 34.804H40.1532C40.0972 35.028 39.9772 35.432 39.7932 36.016H43.3692V37.06C43.1772 37.364 42.7812 37.94 42.1812 38.788L41.8092 39.304C42.4412 39.664 42.8932 39.928 43.1652 40.096L42.6132 41.056C42.0772 40.704 41.3932 40.292 40.5612 39.82C39.7292 39.34 39.0252 38.956 38.4492 38.668L38.9292 37.756C39.5132 38.044 40.1652 38.388 40.8852 38.788C41.2612 38.284 41.6692 37.704 42.1092 37.048H38.6652V36.016C38.8332 35.488 38.9572 35.084 39.0372 34.804H37.8732V33.808H39.3012C39.4452 33.248 39.5492 32.824 39.6132 32.536H38.3652V31.516H39.8292C39.9492 30.892 40.0412 30.36 40.1052 29.92L41.2332 30.028C41.1452 30.54 41.0492 31.036 40.9452 31.516H43.6932V32.536H40.7172L40.4172 33.808H44.0172V34.804ZM52.8372 37.492C53.0852 38.028 53.4892 38.5 54.0492 38.908C54.6092 39.308 55.3012 39.628 56.1252 39.868L55.6452 40.96C54.0772 40.44 52.9492 39.604 52.2612 38.452C51.9812 39.004 51.5452 39.476 50.9532 39.868C50.3612 40.26 49.5692 40.632 48.5772 40.984L48.0012 39.904C49.0412 39.584 49.8372 39.236 50.3892 38.86C50.9412 38.476 51.3052 38.02 51.4812 37.492H48.2052V36.472H49.1772V34.048L48.8532 34.36L48.2052 33.52C48.2052 33.52 48.2932 33.432 48.4692 33.256H47.5092V35.068L48.3372 34.72L48.5772 35.872L47.5092 36.268V39.568C47.5092 40.048 47.4172 40.384 47.2332 40.576C47.0492 40.768 46.7252 40.864 46.2612 40.864C45.9492 40.864 45.6852 40.844 45.4692 40.804L45.2652 39.7C45.4812 39.764 45.7172 39.796 45.9732 39.796C46.1572 39.796 46.2772 39.752 46.3332 39.664C46.3972 39.576 46.4292 39.412 46.4292 39.172V36.688L45.2172 37.18L44.9652 36.004C45.1972 35.932 45.6852 35.76 46.4292 35.488V33.256H45.2292V32.164H46.4292V30.04H47.5092V32.164H48.5052V33.22C49.0332 32.684 49.4812 32.148 49.8492 31.612C50.2172 31.068 50.5292 30.496 50.7852 29.896L51.8172 30.196C51.7052 30.476 51.5932 30.736 51.4812 30.976H54.5652V31.912L53.4852 33.376H55.2492V36.472H56.1132V37.492H52.8372ZM53.2212 31.984H50.9052C50.6172 32.424 50.2532 32.888 49.8132 33.376H52.1532L53.2212 31.984ZM50.1972 34.384V36.472H51.6372V34.384H50.1972ZM52.6692 36.472H54.2412V34.384H52.6692V36.472Z" fill="white" fill-opacity="0.67"/>
<defs>
<clipPath id="bgblur_1_90_2199_clip_path" transform="translate(0 0)"><rect x="82.0888" y="14.0015" width="28.3558" height="28.3344" rx="7" transform="rotate(-10.1592 82.0888 14.0015)"/>
</clipPath><linearGradient id="paint0_linear_90_2199" x1="86.9143" y1="18.0089" x2="90.5294" y2="23.311" gradientUnits="userSpaceOnUse">
<stop stop-color="white" stop-opacity="0.83"/>
<stop offset="1" stop-color="white" stop-opacity="0.03"/>
</linearGradient>
<linearGradient id="paint1_linear_90_2199" x1="106.677" y1="37.2894" x2="102.821" y2="33.1923" gradientUnits="userSpaceOnUse">
<stop stop-color="white" stop-opacity="0.83"/>
<stop offset="1" stop-color="white" stop-opacity="0.03"/>
</linearGradient>
<clipPath id="clip0_90_2199">
<rect x="85.2272" y="16.0808" width="23.1367" height="23.1367" rx="4" transform="rotate(-10.1592 85.2272 16.0808)" fill="white"/>
</clipPath>
</defs>
</svg>
