
<svg width="30px" height="30px" viewBox="0 0 30 30" version="1.1" xmlns="http://www.w3.org/2000/svg" xmlns:xlink="http://www.w3.org/1999/xlink">
    <defs>
        <linearGradient x1="50%" y1="45.1020377%" x2="50%" y2="73.2786996%" id="linearGradient-tkyruy-yhe-1">
            <stop stop-color="#FFFFFF" offset="0%"></stop>
            <stop stop-color="#C6C6C6" offset="100%"></stop>
        </linearGradient>
    </defs>
    <g id="控件" stroke="none" stroke-width="1" fill="none" fill-rule="evenodd">
        <g id="icon">
            <rect id="矩形备份" fill="#242528" x="0" y="0" width="30" height="30" rx="7"></rect>
            <g id="编组" transform="translate(8, 9.5)">
                <polygon id="三角形" fill="url(#linearGradient-tkyruy-yhe-1)" points="7.5 0 11.71875 6.59333555 3.28125 6.59333555"></polygon>
                <path d="M1.00014798,3.32813895 L3.75,4.70952539 C6.10950712,5.89482232 8.89049288,5.89482232 11.25,4.70952539 L13.999852,3.32813895 C14.2774536,3.18868599 14.615543,3.30067754 14.754996,3.57827908 C14.8092754,3.68633023 14.8272913,3.80899636 14.8063728,3.92809179 L13.8234772,9.52400439 C13.7364864,10.019268 13.3313941,10.396659 12.8312188,10.4484092 L10.5882353,10.6804779 C8.53489232,10.8929256 6.46510768,10.8929256 4.41176471,10.6804779 L2.16878122,10.4484092 C1.66860589,10.396659 1.26351356,10.019268 1.17652284,9.52400439 L0.193627232,3.92809179 C0.139883968,3.62211564 0.344359121,3.33050544 0.65033527,3.27676217 C0.769430702,3.25584362 0.892096828,3.27385952 1.00014798,3.32813895 Z" id="矩形" fill="#FFFFFF"></path>
            </g>
        </g>
    </g>
</svg>