<svg xmlns="http://www.w3.org/2000/svg" xmlns:xlink="http://www.w3.org/1999/xlink" width="40" height="40" viewBox="0 0 40 40" fill="none"><defs><rect id="path_0" x="0" y="0" width="40" height="40" /></defs><g opacity="1" transform="translate(0 0)  rotate(0 20 20)"><mask id="bg-mask-0" fill="white"><use xlink:href="#path_0"></use></mask><g mask="url(#bg-mask-0)" ><path id="分组 1" fill-rule="evenodd" style="fill:#FFFFFF" transform="translate(9 10)  rotate(0 11 10)" opacity="1" d="M19.21 20C20.4 20 21.23 19.5 21.72 18.51C22.2 17.51 22.06 16.59 21.29 15.74L14.9 8.75L14.9 2.75L15.47 2.75C15.89 2.75 16.25 2.62 16.53 2.36C16.81 2.1 16.96 1.77 16.96 1.38C16.96 1 16.81 0.67 16.52 0.4C16.22 0.13 15.88 0 15.47 0L6.52 0C6.1 0 5.75 0.13 5.47 0.4C5.18 0.67 5.04 1 5.04 1.38C5.04 1.77 5.18 2.1 5.47 2.36C5.75 2.62 6.1 2.75 6.52 2.75L7.13 2.75L7.13 8.75L0.73 15.74C-0.06 16.59 -0.21 17.51 0.28 18.51C0.76 19.5 1.6 20 2.79 20L19.21 20Z M18.8237 17.2435L11.9837 9.76348L11.9837 2.75348L10.0337 2.75348L10.0337 9.76348L3.17374 17.2435L18.8237 17.2435Z " /><path  id="分组 1" style="stroke:#FFFFFF; stroke-width:1; stroke-opacity:1; stroke-dasharray:0 0" transform="translate(9 10)  rotate(0 11 10)" d="M19.21 20C20.4 20 21.23 19.5 21.72 18.51C22.2 17.51 22.06 16.59 21.29 15.74L14.9 8.75L14.9 2.75L15.47 2.75C15.89 2.75 16.25 2.62 16.53 2.36C16.81 2.1 16.96 1.77 16.96 1.38C16.96 1 16.81 0.67 16.52 0.4C16.22 0.13 15.88 0 15.47 0L6.52 0C6.1 0 5.75 0.13 5.47 0.4C5.18 0.67 5.04 1 5.04 1.38C5.04 1.77 5.18 2.1 5.47 2.36C5.75 2.62 6.1 2.75 6.52 2.75L7.13 2.75L7.13 8.75L0.73 15.74C-0.06 16.59 -0.21 17.51 0.28 18.51C0.76 19.5 1.6 20 2.79 20L19.21 20Z M18.8237 17.2435L11.9837 9.76348L11.9837 2.75348L10.0337 2.75348L10.0337 9.76348L3.17374 17.2435L18.8237 17.2435Z " /></g></g></svg>